<?xml version="1.0" standalone="no"?>
<!DOCTYPE svg PUBLIC "-//W3C//DTD SVG 20010904//EN"
 "http://www.w3.org/TR/2001/REC-SVG-20010904/DTD/svg10.dtd">
<svg version="1.0" xmlns="http://www.w3.org/2000/svg"
 width="500.000000pt" height="500.000000pt" viewBox="0 0 500.000000 500.000000"
 preserveAspectRatio="xMidYMid meet">
<metadata>
Created by potrace 1.11, written by Peter Selinger 2001-2013
</metadata>
<g transform="translate(0.000000,500.000000) scale(0.100000,-0.100000)"
fill="#000000" stroke="none">
<path d="M2030 4548 c-19 -5 -47 -19 -62 -30 -15 -10 -39 -21 -53 -22 -27 -3
-60 -26 -37 -26 7 0 12 -5 12 -11 0 -5 -10 -9 -22 -7 -14 2 -22 -2 -21 -9 2
-7 -2 -13 -7 -13 -5 0 -9 -3 -9 -7 1 -5 1 -21 0 -36 -1 -24 -4 -27 -22 -22
-16 5 -20 3 -17 -6 3 -8 1 -23 -4 -33 -6 -10 -14 -32 -19 -48 -8 -28 -7 -30
16 -25 29 5 34 -7 8 -18 -17 -6 -17 -7 0 -16 9 -6 22 -7 27 -4 20 12 32 -7 15
-25 -14 -15 -14 -18 -1 -23 10 -4 13 -1 9 8 -3 8 2 18 11 21 18 7 22 34 5 34
-5 0 -8 4 -5 9 10 15 46 0 46 -20 0 -13 5 -17 18 -13 14 5 14 4 2 -5 -21 -15
-4 -26 22 -14 16 7 28 7 39 0 9 -6 24 -7 34 -3 16 6 16 8 3 19 -9 6 -18 19
-21 27 -3 10 -6 7 -6 -8 -1 -14 -5 -21 -12 -16 -6 3 -9 16 -7 29 3 12 -1 30
-8 39 -11 15 -14 14 -33 -10 -15 -19 -21 -22 -21 -10 0 9 -6 16 -14 16 -7 0
-16 9 -19 20 -4 15 0 20 15 20 17 0 19 5 14 25 -5 18 -2 25 8 25 8 0 16 6 19
13 2 6 8 9 12 5 5 -5 0 -17 -10 -28 -15 -16 -16 -23 -6 -33 10 -9 14 -8 22 6
6 9 14 17 19 17 6 0 10 -8 10 -17 0 -13 4 -11 13 7 9 17 10 27 3 32 -6 4 -1 8
11 8 12 0 25 5 28 10 3 6 17 7 31 4 13 -3 30 -1 38 5 7 6 34 12 60 13 25 1 46
6 46 11 0 5 7 7 15 3 13 -5 19 4 17 25 -1 3 19 3 44 -1 24 -4 44 -3 44 1 0 4
8 6 18 4 15 -3 18 2 14 21 -2 13 -11 24 -18 24 -8 0 -22 4 -32 10 -44 24 -91
38 -129 39 -22 0 -53 5 -68 11 -31 12 -38 12 -85 -2z m-160 -214 c0 -8 -4 -12
-10 -9 -5 3 -10 10 -10 16 0 5 5 9 10 9 6 0 10 -7 10 -16z m90 -84 c0 -5 -4
-10 -10 -10 -5 0 -10 5 -10 10 0 6 5 10 10 10 6 0 10 -4 10 -10z"/>
<path d="M1737 4393 c-4 -3 -7 -13 -7 -22 1 -13 3 -13 11 2 11 19 8 33 -4 20z"/>
<path d="M1700 4340 c0 -5 5 -10 10 -10 6 0 10 5 10 10 0 6 -4 10 -10 10 -5 0
-10 -4 -10 -10z"/>
<path d="M1752 4300 c0 -14 2 -19 5 -12 2 6 2 18 0 25 -3 6 -5 1 -5 -13z"/>
<path d="M2031 4244 c0 -11 3 -14 6 -6 3 7 2 16 -1 19 -3 4 -6 -2 -5 -13z"/>
<path d="M1870 4180 c0 -5 4 -10 9 -10 6 0 13 5 16 10 3 6 -1 10 -9 10 -9 0
-16 -4 -16 -10z"/>
<path d="M1765 4160 c4 -6 11 -8 16 -5 14 9 11 15 -7 15 -8 0 -12 -5 -9 -10z"/>
<path d="M1921 4084 c0 -11 3 -14 6 -6 3 7 2 16 -1 19 -3 4 -6 -2 -5 -13z"/>
<path d="M2580 3658 c0 -4 -8 -8 -18 -8 -25 0 -34 -11 -21 -26 7 -8 7 -14 -1
-19 -19 -11 -10 -25 16 -25 52 0 164 31 164 46 0 15 6 17 54 18 16 1 31 6 33
11 2 6 -40 10 -112 10 -63 0 -115 -3 -115 -7z"/>
<path d="M1913 3638 c-38 -10 -107 -13 -121 -4 -16 10 -46 -8 -66 -39 -17 -25
-17 -28 0 -46 15 -17 25 -19 59 -13 56 10 190 8 210 -3 23 -13 1 -29 -50 -36
-51 -7 -144 -35 -168 -52 -10 -7 -28 -11 -40 -8 -15 3 -18 2 -10 -4 16 -11
-10 -53 -33 -53 -8 0 -14 -9 -14 -20 0 -10 -5 -30 -11 -44 -15 -33 4 -60 35
-50 60 19 68 24 57 38 -8 10 -7 21 5 45 17 34 20 35 81 21 28 -7 58 -7 87 0
26 6 55 6 68 1 21 -8 20 -9 -20 -35 -24 -15 -46 -25 -50 -23 -4 3 -24 -3 -45
-12 l-38 -16 51 -1 c27 0 53 -4 57 -7 9 -10 -25 -33 -71 -48 -43 -14 -56 -34
-35 -54 24 -23 79 -23 79 0 0 9 11 20 24 25 13 5 26 14 28 20 3 10 27 17 76
22 6 1 12 7 12 14 0 8 6 11 14 8 8 -3 12 -13 9 -25 -4 -13 0 -19 11 -19 9 0
16 8 16 20 0 11 5 20 10 20 6 0 17 15 25 33 8 17 14 26 15 18 0 -8 7 -11 19
-8 17 4 18 1 9 -31 -8 -29 -7 -38 5 -47 21 -15 5 -41 -43 -65 -21 -11 -43 -27
-48 -36 -5 -8 -20 -21 -33 -27 -13 -7 -26 -23 -28 -37 -1 -14 -8 -28 -13 -31
-6 -4 2 -13 18 -20 21 -10 29 -22 30 -42 1 -16 -4 -27 -12 -27 -8 0 -13 -4
-12 -8 4 -10 -59 -72 -72 -72 -5 0 -25 -14 -45 -31 -41 -36 -50 -81 -14 -72
20 6 21 3 14 -34 -5 -35 -1 -51 31 -112 39 -75 52 -90 63 -74 10 15 41 24 41
11 0 -6 2 -9 5 -6 3 3 1 17 -4 32 -10 24 -8 26 14 26 13 0 26 -4 30 -9 8 -14
108 -24 151 -17 30 6 33 10 23 22 -7 9 -20 12 -33 8 -12 -4 -18 -3 -14 1 8 8
23 10 116 20 30 2 68 12 86 20 18 9 56 17 85 19 35 3 64 12 84 26 26 20 31 21
39 7 11 -21 38 -11 38 15 0 10 -7 32 -15 47 -12 24 -23 30 -73 38 -67 10 -122
0 -64 -12 35 -8 43 -33 17 -55 -8 -7 -15 -9 -15 -5 0 4 -6 3 -12 -2 -23 -18
-75 -31 -89 -23 -8 6 -16 4 -21 -2 -8 -15 -159 -30 -173 -18 -6 5 -17 5 -24 1
-16 -10 -51 -2 -51 11 0 6 -9 8 -21 5 -15 -4 -22 1 -30 19 -13 35 -12 36 14
33 12 -1 30 1 40 6 9 4 24 4 34 1 9 -4 31 -2 49 4 22 8 39 8 51 2 12 -7 28 -6
54 4 20 8 42 14 49 12 7 -2 15 3 18 11 3 10 0 12 -12 8 -9 -4 -16 -2 -16 2 0
5 -32 9 -71 9 -39 0 -74 4 -78 8 -3 5 -19 10 -35 11 -15 0 -36 9 -45 18 -15
15 -14 18 8 36 13 10 29 19 36 19 8 0 12 12 11 33 -1 27 3 33 23 35 13 2 27
-2 32 -9 13 -21 17 -7 7 28 -7 26 -15 33 -41 38 -34 7 -80 -6 -92 -25 -5 -8
-11 -8 -21 1 -26 21 -15 45 36 78 28 18 50 37 50 42 0 6 6 9 13 8 32 -4 45 3
51 26 4 14 11 25 17 25 6 0 18 8 27 17 16 16 16 16 0 10 -21 -8 -22 2 -6 38 8
19 9 28 1 33 -6 4 -13 16 -15 27 -3 20 -44 65 -58 65 -4 0 -10 -7 -14 -15 -9
-25 -25 -17 -23 12 1 19 -3 28 -13 28 -8 0 -25 21 -38 48 -13 26 -33 52 -44
58 -12 6 -34 25 -51 42 -24 25 -26 29 -9 25 19 -5 20 -3 9 21 -6 14 -15 31
-19 38 -11 13 -108 21 -145 11z m117 -198 c9 -17 7 -22 -16 -30 -34 -13 -38
-9 -23 24 15 31 25 33 39 6z m-170 -30 c11 -21 4 -25 -19 -11 -7 5 -10 14 -7
20 10 15 14 14 26 -9z m240 -25 c-7 -8 -18 -15 -24 -15 -6 0 -2 7 8 15 25 19
32 19 16 0z m41 -568 c-1 -12 -15 -9 -19 4 -3 6 1 10 8 8 6 -3 11 -8 11 -12z
m-31 -87 c0 -5 -7 -10 -15 -10 -8 0 -15 5 -15 10 0 6 7 10 15 10 8 0 15 -4 15
-10z"/>
<path d="M2580 3528 c-46 -7 -60 -14 -87 -45 -37 -43 -42 -63 -15 -63 27 0 58
-25 43 -34 -19 -12 7 -36 40 -36 31 0 41 26 14 36 -8 4 -15 10 -15 16 0 5 5 6
10 3 6 -3 10 -3 10 2 0 4 19 8 42 8 41 0 42 1 52 43 11 42 11 42 34 27 26 -19
28 -40 5 -55 -15 -10 -14 -10 7 -5 62 16 70 17 70 6 0 -6 5 -11 11 -11 18 0
-43 70 -75 87 -47 24 -85 30 -146 21z m-33 -75 c2 -6 -8 -13 -22 -15 -27 -6
-32 1 -13 20 14 14 30 11 35 -5z"/>
<path d="M2796 3477 c3 -10 9 -15 12 -12 3 3 0 11 -7 18 -10 9 -11 8 -5 -6z"/>
<path d="M1235 3430 c-3 -5 -1 -10 4 -10 6 0 11 -8 11 -17 0 -10 7 -26 14 -36
15 -19 73 -40 79 -29 10 17 -25 72 -54 86 -37 19 -46 20 -54 6z"/>
<path d="M1200 3368 c1 -18 7 -51 15 -73 8 -22 15 -60 15 -84 0 -70 11 -47 37
80 3 18 -3 40 -21 68 -32 49 -46 52 -46 9z"/>
<path d="M1280 3283 c0 -15 19 -37 26 -31 3 4 -1 14 -10 23 -9 9 -16 13 -16 8z"/>
<path d="M1685 3240 c-3 -6 1 -7 9 -4 18 7 21 14 7 14 -6 0 -13 -4 -16 -10z"/>
<path d="M1316 3209 c-15 -13 -28 -35 -30 -49 -1 -14 -6 -37 -10 -53 -10 -33
7 -57 40 -57 14 0 25 -8 29 -21 4 -11 9 -19 11 -16 3 2 0 17 -6 32 -8 21 -7
41 5 80 18 64 18 67 2 89 -13 17 -15 17 -41 -5z"/>
<path d="M1795 3190 c-3 -5 -1 -10 4 -10 6 0 11 5 11 10 0 6 -2 10 -4 10 -3 0
-8 -4 -11 -10z"/>
<path d="M1597 3183 c-4 -3 -7 -11 -7 -17 0 -6 5 -5 12 2 6 6 9 14 7 17 -3 3
-9 2 -12 -2z"/>
<path d="M1775 3160 c3 -5 8 -10 11 -10 2 0 4 5 4 10 0 6 -5 10 -11 10 -5 0
-7 -4 -4 -10z"/>
<path d="M1820 3100 c-8 -4 -27 -13 -42 -19 -25 -9 -27 -14 -21 -43 3 -18 7
-35 9 -37 7 -7 44 42 44 57 0 8 8 21 17 28 21 14 15 25 -7 14z"/>
<path d="M2580 3073 c8 -3 28 -17 44 -32 l29 -26 -22 33 c-14 20 -30 32 -44
31 -15 0 -17 -2 -7 -6z"/>
<path d="M2430 3025 c-10 -12 -10 -15 1 -15 26 0 59 12 59 21 0 15 -47 10 -60
-6z"/>
<path d="M1306 2835 c3 -22 9 -49 14 -60 4 -11 14 -35 20 -53 12 -30 14 -31
26 -15 13 17 13 17 14 1 0 -18 20 -26 20 -8 0 22 -32 89 -45 94 -8 3 -23 22
-35 43 l-20 38 6 -40z"/>
<path d="M1401 2663 c-1 -12 4 -25 9 -28 12 -7 12 2 0 30 -8 19 -9 19 -9 -2z"/>
<path d="M1276 2505 c-15 -25 -25 -49 -21 -53 10 -10 65 55 65 78 0 31 -13 24
-44 -25z"/>
<path d="M1267 2331 c-11 -50 -9 -85 6 -105 12 -16 13 -9 10 45 -6 90 -8 99
-16 60z"/>
<path d="M2172 2349 c2 -6 8 -10 13 -10 5 0 11 4 13 10 2 6 -4 11 -13 11 -9 0
-15 -5 -13 -11z"/>
<path d="M2631 1895 c-18 -19 -50 -42 -70 -51 -35 -15 -38 -20 -94 -182 l-58
-167 38 -30 c20 -16 51 -43 66 -58 33 -31 45 -30 27 3 -6 12 -9 24 -6 27 5 5
11 -7 32 -66 7 -21 -37 -141 -52 -141 -25 0 -24 -20 6 -108 17 -50 33 -112 35
-139 3 -26 8 -62 10 -80 3 -23 0 -30 -10 -27 -7 3 -17 -7 -23 -25 -7 -19 -18
-31 -29 -31 -10 0 -24 -9 -31 -20 -10 -17 -9 -31 9 -83 11 -34 24 -66 28 -72
5 -5 14 -31 21 -57 12 -45 10 -102 -6 -232 -6 -45 8 -115 27 -141 4 -6 7 -55
6 -110 l-2 -100 333 -3 c315 -2 333 -1 328 15 -3 10 -17 88 -31 173 -28 163
-85 401 -134 554 -25 81 -58 249 -91 466 -8 53 -22 96 -50 148 -22 40 -40 86
-40 100 0 15 -7 52 -15 82 -8 30 -15 92 -15 138 0 71 -4 90 -25 126 -25 44
-59 77 -107 109 -36 23 -38 22 -77 -18z"/>
<path d="M4732 1366 c-6 -15 -12 -37 -12 -49 1 -17 4 -15 16 12 18 42 15 78
-4 37z"/>
<path d="M4640 1128 c-34 -68 -80 -149 -101 -182 -22 -32 -32 -53 -24 -46 24
20 124 186 162 268 56 121 30 93 -37 -40z"/>
<path d="M117 1188 c-8 -30 -1 -35 23 -13 25 23 26 35 1 35 -11 0 -21 -9 -24
-22z"/>
<path d="M4346 795 c-16 -9 -69 -24 -118 -35 -49 -11 -101 -25 -116 -32 -27
-13 -27 -13 -23 -108 2 -67 8 -101 20 -117 19 -27 54 -32 44 -7 -4 12 -2 15 8
12 8 -3 13 -14 11 -25 -2 -13 11 -32 35 -54 36 -31 38 -32 41 -12 4 25 34 33
74 20 15 -5 37 -7 50 -5 20 3 16 7 -29 37 -29 19 -53 36 -53 38 0 2 19 24 43
48 29 32 62 53 110 71 37 14 67 30 67 35 0 14 -19 11 -115 -22 -49 -16 -117
-33 -151 -36 -61 -6 -61 -6 -67 23 -3 16 -8 36 -12 45 -5 12 2 18 27 23 63 13
183 67 201 92 17 23 17 24 0 24 -10 0 -31 -7 -47 -15z"/>
<path d="M1445 547 c-8 -29 16 -137 36 -167 12 -18 4 60 -15 141 -12 51 -13
52 -21 26z"/>
<path d="M4260 411 c0 -11 5 -23 10 -26 6 -4 10 5 10 19 0 14 -4 26 -10 26 -5
0 -10 -9 -10 -19z"/>
<path d="M4102 365 c0 -16 2 -22 5 -12 2 9 2 23 0 30 -3 6 -5 -1 -5 -18z"/>
<path d="M4150 364 c0 -8 5 -12 10 -9 15 10 12 -18 -6 -43 -8 -12 -23 -22 -33
-22 -13 0 -20 -10 -25 -31 -8 -40 -6 -166 3 -197 l6 -24 19 21 c11 12 17 24
14 27 -4 3 0 17 7 31 8 16 11 33 6 42 -5 9 -11 39 -14 67 l-6 52 32 -16 c28
-14 29 -16 11 -23 -16 -6 -16 -8 -2 -8 9 -1 21 -8 26 -17 7 -12 17 -15 36 -10
35 9 33 32 -4 55 -16 10 -27 21 -22 26 4 4 -3 3 -15 -4 -32 -16 -33 -14 -17
24 18 44 18 48 -6 63 -17 10 -20 10 -20 -4z"/>
<path d="M4225 370 c-3 -5 -1 -10 4 -10 6 0 11 5 11 10 0 6 -2 10 -4 10 -3 0
-8 -4 -11 -10z"/>
<path d="M4270 330 c0 -5 5 -10 11 -10 5 0 7 5 4 10 -3 6 -8 10 -11 10 -2 0
-4 -4 -4 -10z"/>
<path d="M1470 185 c0 -22 3 -58 7 -80 5 -31 8 -35 14 -20 13 34 10 100 -6
121 -13 18 -14 16 -15 -21z"/>
<path d="M4170 150 c0 -5 5 -10 10 -10 6 0 10 5 10 10 0 6 -4 10 -10 10 -5 0
-10 -4 -10 -10z"/>
<path d="M4299 111 c-13 -10 -46 -39 -74 -65 l-50 -46 73 0 c57 0 72 3 72 15
0 8 -8 15 -17 15 -15 0 -16 2 -3 10 8 5 16 5 18 1 4 -13 40 -1 46 14 6 15 -21
75 -33 75 -5 0 -19 -8 -32 -19z"/>
<path d="M4126 34 c-3 -8 -10 -12 -16 -9 -5 3 -10 -1 -10 -9 0 -10 10 -14 29
-14 23 1 27 5 23 20 -6 25 -19 31 -26 12z"/>
</g>
</svg>
